<svg xmlns="http://www.w3.org/2000/svg" xmlns:xlink="http://www.w3.org/1999/xlink" viewBox="0 0 93 27" overflow="visible"><g><path d="M 24.7 0 L 14.356 14.864 L 10.328 9.227 L 12.067 16.409 L 3.783 14.227 L 10.328 18 L 0 24.773 L 10.649 21.455 L 10.649 26.545 L 14.63 22.364 L 16.507 24.773 L 16.507 21.773 L 30.741 27 L 18.521 18 L 23.967 15.136 L 17.972 15.682 Z" fill="rgb(255,204,0)"></path><path d="M 33.898 9.868 L 33.898 14.623 C 34.586 13.665 35.599 13.177 36.957 13.177 C 38.187 13.177 39.183 13.629 39.943 14.497 C 40.703 15.383 41.083 16.558 41.083 18.005 C 41.083 19.523 40.685 20.735 39.925 21.639 C 39.146 22.543 38.115 22.995 36.848 22.995 C 35.436 22.995 34.405 22.489 33.789 21.476 L 33.789 22.742 L 31.853 22.742 L 31.853 9.868 Z M 36.432 14.822 C 35.617 14.822 34.984 15.112 34.513 15.69 C 34.043 16.269 33.826 17.083 33.826 18.095 C 33.826 19.108 34.043 19.885 34.513 20.464 C 34.984 21.042 35.617 21.332 36.432 21.332 C 37.192 21.332 37.825 21.042 38.296 20.446 C 38.766 19.849 39.002 19.053 39.002 18.041 C 39.002 17.064 38.766 16.269 38.296 15.69 C 37.825 15.112 37.21 14.822 36.432 14.822 Z M 49.287 13.412 L 49.287 22.742 L 47.35 22.742 L 47.35 21.35 C 46.554 22.453 45.541 22.995 44.274 22.995 C 43.242 22.995 42.446 22.706 41.903 22.127 C 41.36 21.549 41.089 20.699 41.089 19.596 L 41.089 13.412 L 43.152 13.412 L 43.152 18.746 C 43.152 19.071 43.152 19.343 43.17 19.542 C 43.17 19.74 43.206 19.957 43.279 20.211 C 43.351 20.464 43.441 20.644 43.568 20.771 C 43.695 20.916 43.876 21.024 44.111 21.115 C 44.346 21.223 44.636 21.259 44.98 21.259 C 45.74 21.259 46.319 20.988 46.681 20.446 C 47.043 19.903 47.224 19.198 47.224 18.348 L 47.224 13.412 Z M 56.946 13.412 L 56.946 14.858 L 51.662 21.079 L 57.218 21.079 L 57.218 22.742 L 48.983 22.742 L 48.983 21.169 L 54.195 15.039 L 49.345 15.039 L 49.345 13.412 Z M 64.185 13.412 L 64.185 14.858 L 58.901 21.079 L 64.456 21.079 L 64.456 22.742 L 56.222 22.742 L 56.222 21.169 L 61.434 15.039 L 56.584 15.039 L 56.584 13.412 Z M 66.266 9.814 L 66.266 11.839 L 64.203 11.839 L 64.203 9.814 Z M 66.266 13.412 L 66.266 22.742 L 64.203 22.742 L 64.203 13.412 Z M 68.677 13.412 L 68.677 14.786 C 69.419 13.701 70.451 13.159 71.772 13.159 C 72.821 13.159 73.618 13.448 74.142 14.027 C 74.667 14.605 74.939 15.437 74.939 16.522 L 74.939 22.742 L 72.876 22.742 L 72.876 17.318 C 72.876 16.956 72.858 16.649 72.821 16.395 C 72.785 16.142 72.695 15.889 72.586 15.636 C 72.478 15.383 72.297 15.202 72.043 15.075 C 71.79 14.949 71.464 14.877 71.066 14.877 C 69.546 14.877 68.786 15.835 68.786 17.715 L 68.786 22.742 L 66.723 22.742 L 66.723 13.412 Z M 83.847 13.412 L 83.847 21.657 C 83.847 23.266 83.503 24.46 82.815 25.219 C 82.127 25.997 80.987 26.376 79.358 26.376 C 76.789 26.376 75.395 25.436 75.178 23.538 L 77.241 23.538 C 77.422 24.478 78.146 24.93 79.413 24.93 C 80.263 24.93 80.879 24.713 81.277 24.279 C 81.675 23.845 81.874 23.158 81.874 22.181 L 81.874 21.079 C 81.186 22.127 80.209 22.652 78.906 22.652 C 77.657 22.652 76.662 22.236 75.938 21.404 C 75.214 20.572 74.852 19.433 74.852 18.005 C 74.852 16.558 75.232 15.383 75.992 14.497 C 76.752 13.611 77.748 13.159 79.015 13.159 C 79.666 13.159 80.227 13.285 80.68 13.539 C 81.114 13.792 81.53 14.171 81.928 14.714 L 81.928 13.412 Z M 79.377 14.822 C 78.599 14.822 77.983 15.112 77.549 15.654 C 77.114 16.215 76.897 16.992 76.897 17.969 C 76.897 18.909 77.114 19.668 77.567 20.211 C 78.019 20.771 78.617 21.042 79.377 21.042 C 80.137 21.042 80.752 20.771 81.204 20.192 C 81.639 19.614 81.874 18.836 81.874 17.86 C 81.874 16.92 81.639 16.178 81.204 15.636 C 80.77 15.094 80.155 14.822 79.377 14.822 Z M 84.114 16.287 C 84.331 14.189 85.689 13.123 88.204 13.123 C 89.362 13.123 90.303 13.358 90.991 13.81 C 91.679 14.28 92.041 14.985 92.041 15.943 L 92.041 20.681 C 92.041 20.952 92.059 21.133 92.131 21.223 C 92.204 21.332 92.33 21.368 92.529 21.368 C 92.674 21.368 92.819 21.368 93 21.332 L 93 22.778 C 92.457 22.923 92.023 22.977 91.661 22.977 C 90.774 22.977 90.267 22.615 90.141 21.856 C 89.344 22.615 88.258 22.977 86.865 22.977 C 85.888 22.977 85.128 22.742 84.567 22.236 C 83.987 21.729 83.716 21.06 83.716 20.192 C 83.716 19.939 83.734 19.686 83.806 19.451 C 83.861 19.234 83.933 19.035 84.006 18.854 C 84.078 18.692 84.204 18.529 84.386 18.384 C 84.567 18.24 84.711 18.131 84.82 18.023 C 84.928 17.932 85.128 17.842 85.381 17.752 C 85.634 17.679 85.833 17.607 85.96 17.571 C 86.087 17.535 86.304 17.48 86.63 17.426 C 86.937 17.39 87.136 17.354 87.245 17.336 C 87.354 17.318 87.571 17.281 87.896 17.245 C 88.62 17.155 89.127 17.083 89.399 17.01 C 89.652 16.938 89.833 16.847 89.941 16.703 C 90.014 16.612 90.068 16.395 90.068 16.034 C 90.068 15.094 89.417 14.623 88.15 14.623 C 87.462 14.623 86.973 14.75 86.666 15.003 C 86.34 15.256 86.141 15.69 86.069 16.287 Z M 90.05 18.059 C 89.887 18.149 89.706 18.222 89.507 18.294 C 89.29 18.366 89.127 18.402 89 18.421 C 88.874 18.439 88.675 18.457 88.403 18.493 C 88.132 18.529 87.951 18.565 87.878 18.565 C 87.625 18.601 87.426 18.637 87.281 18.674 C 87.136 18.71 86.955 18.746 86.738 18.818 C 86.521 18.891 86.358 18.981 86.25 19.09 C 86.141 19.198 86.032 19.325 85.96 19.505 C 85.87 19.686 85.833 19.885 85.833 20.12 C 85.833 20.572 85.978 20.916 86.268 21.151 C 86.557 21.404 86.973 21.512 87.516 21.512 C 88.421 21.512 89.127 21.277 89.634 20.771 C 89.905 20.5 90.05 19.957 90.05 19.162 Z" fill="rgb(0,0,0)"></path></g></svg>