<svg xmlns="http://www.w3.org/2000/svg" width="250" height="218" fill="none"><path fill="#333" d="M30.57 23.05V30h-1.14v-4.76L27.31 30h-.79l-2.13-4.76V30h-1.14v-6.95h1.23l2.44 5.45 2.43-5.45zm31.337 0v.93h-1.85V30h-1.14v-6.02h-1.86v-.93zm35.226 0L95.073 30h-1.29l-1.46-5.26-1.55 5.26-1.28.01-1.97-6.96h1.21l1.44 5.66 1.56-5.66h1.28l1.45 5.63 1.45-5.63zm30.107 0v.93h-1.85V30h-1.14v-6.02h-1.86v-.93zm32.267 0v.93h-2.95v2.05h2.3v.93h-2.3V30h-1.14v-6.95zm30.366 7.02q-.699 0-1.26-.24a2.1 2.1 0 0 1-.88-.7q-.32-.45-.32-1.05h1.22q.04.45.35.74.32.29.89.29.59 0 .92-.28a.94.94 0 0 0 .33-.74.8.8 0 0 0-.21-.57 1.3 1.3 0 0 0-.51-.34q-.3-.12-.84-.26a9 9 0 0 1-1.11-.36q-.42-.19-.72-.58t-.3-1.04q0-.6.3-1.05t.84-.69 1.25-.24q1.011 0 1.65.51.651.5.72 1.38h-1.26q-.03-.38-.36-.65t-.87-.27q-.49 0-.8.25t-.31.72q0 .32.19.53.2.2.5.32t.82.26q.69.19 1.12.38.44.19.74.59.31.39.31 1.05 0 .53-.29 1a2.04 2.04 0 0 1-.83.76q-.54.28-1.28.28m32.667 0q-.7 0-1.26-.24a2.1 2.1 0 0 1-.88-.7q-.32-.45-.32-1.05h1.22q.04.45.35.74.32.29.89.29.59 0 .92-.28a.94.94 0 0 0 .33-.74.8.8 0 0 0-.21-.57 1.3 1.3 0 0 0-.51-.34q-.3-.12-.84-.26a9 9 0 0 1-1.11-.36q-.42-.19-.72-.58t-.3-1.04q0-.6.3-1.05t.84-.69 1.25-.24q1.01 0 1.65.51.65.5.72 1.38h-1.26q-.03-.38-.36-.65t-.87-.27q-.49 0-.8.25t-.31.72q0 .32.19.53.2.2.5.32t.82.26q.69.19 1.12.38.44.19.74.59.31.39.31 1.05 0 .53-.29 1a2.05 2.05 0 0 1-.83.76q-.54.28-1.28.28" opacity=".7"/><path fill="#333" d="M19.6 59.26q0-1.73.58-2.7.59-.98 2.02-.98t2.01.98q.59.97.59 2.7 0 1.75-.59 2.74-.58.98-2.01.98T20.18 62q-.58-.99-.58-2.74m4.08 0q0-.81-.11-1.37-.1-.56-.42-.91-.32-.36-.95-.36t-.95.36q-.32.35-.43.91-.1.56-.1 1.37 0 .84.1 1.41t.42.92q.33.35.96.35t.95-.35q.33-.35.43-.92c.1-.57.1-.85.1-1.41m2.176-2.51v-1.04h2.08V63h-1.15v-6.25z"/><rect width="22" height="25" x="47.333" y="47" fill="#090F23" rx="11"/><path fill="#fff" d="M52.433 59.26q0-1.73.58-2.7.59-.98 2.02-.98t2.01.98q.59.97.59 2.7 0 1.75-.59 2.74-.579.98-2.01.98t-2.02-.98q-.58-.99-.58-2.74m4.08 0q0-.81-.11-1.37-.099-.56-.42-.91-.32-.36-.95-.36t-.95.36q-.32.35-.43.91-.1.56-.1 1.37 0 .84.1 1.41t.42.92q.33.35.96.35t.95-.35q.33-.35.43-.92t.1-1.41m2.956 2.19a40 40 0 0 0 1.51-1.36 6 6 0 0 0 .93-1.12q.37-.58.37-1.16 0-.6-.29-.94-.28-.34-.89-.34-.59 0-.92.38-.32.37-.34 1h-1.1q.03-1.14.68-1.74.66-.61 1.67-.61 1.09 0 1.7.6.62.6.62 1.6 0 .72-.37 1.39-.36.66-.87 1.19-.5.52-1.28 1.21l-.45.4h3.17v.95h-4.86v-.83z"/><path fill="#333" d="M86.267 59.26q0-1.73.58-2.7.59-.98 2.02-.98t2.01.98q.59.97.59 2.7 0 1.75-.59 2.74-.58.98-2.01.98t-2.02-.98q-.58-.99-.58-2.74m4.08 0q0-.81-.11-1.37-.1-.56-.42-.91-.32-.36-.95-.36t-.95.36q-.32.35-.43.91-.1.56-.1 1.37 0 .84.1 1.41.099.57.42.92.33.35.96.35t.95-.35q.33-.35.43-.92t.1-1.41m2.306-1.75q.06-.93.71-1.45.66-.52 1.68-.52.7 0 1.21.25t.77.68.26.97q0 .62-.33 1.06t-.79.59v.04q.59.18.92.66.33.47.33 1.21 0 .59-.27 1.05t-.8.73q-.53.26-1.27.26-1.08 0-1.78-.55-.69-.56-.74-1.6h1.1q.04.53.41.87.37.33 1 .33.61 0 .94-.33.33-.34.33-.87 0-.7-.45-.99-.44-.3-1.36-.3h-.26v-.94h.27q.81-.01 1.23-.27.43-.26.43-.82 0-.48-.31-.76-.31-.29-.88-.29-.56 0-.87.29a1.13 1.13 0 0 0-.37.7zm26.947 1.75q0-1.73.58-2.7.59-.98 2.02-.98t2.01.98q.59.97.59 2.7 0 1.75-.59 2.74-.58.98-2.01.98t-2.02-.98q-.58-.99-.58-2.74m4.08 0q0-.81-.11-1.37-.1-.56-.42-.91-.32-.36-.95-.36t-.95.36q-.32.35-.43.91-.1.56-.1 1.37 0 .84.1 1.41t.42.92q.33.35.96.35t.95-.35q.33-.35.43-.92c.1-.57.1-.85.1-1.41m2.186 2.22v-.86l3.36-4.82h1.38v4.69h.93v.99h-.93V63h-1.12v-1.52zm3.67-4.52-2.36 3.53h2.36zm23.397 2.3q0-1.73.58-2.7.59-.98 2.02-.98t2.01.98q.59.97.59 2.7 0 1.75-.59 2.74-.579.98-2.01.98t-2.02-.98q-.58-.99-.58-2.74m4.08 0q0-.81-.11-1.37-.099-.56-.42-.91-.32-.36-.95-.36t-.95.36q-.32.35-.43.91-.1.56-.1 1.37 0 .84.1 1.41t.42.92q.33.35.96.35t.95-.35q.33-.35.43-.92t.1-1.41m7.027-2.57h-3.35v1.99q.21-.28.62-.47.42-.19.89-.19.84 0 1.36.36.53.36.75.91.23.55.23 1.16 0 .74-.29 1.32-.28.57-.85.9-.561.33-1.38.33-1.09 0-1.75-.54t-.79-1.43h1.11q.11.47.49.75.38.27.95.27.71 0 1.06-.43.36-.43.36-1.14 0-.72-.36-1.1-.36-.39-1.06-.39-.49 0-.83.25-.33.24-.48.66h-1.08v-4.21h4.4zm22.227 2.57q0-1.73.58-2.7.59-.98 2.02-.98t2.01.98q.59.97.59 2.7 0 1.75-.59 2.74-.58.98-2.01.98t-2.02-.98q-.58-.99-.58-2.74m4.08 0q0-.81-.11-1.37-.1-.56-.42-.91-.32-.36-.95-.36t-.95.36q-.32.35-.43.91-.1.56-.1 1.37 0 .84.1 1.41.099.57.42.92.33.35.96.35t.95-.35q.33-.35.43-.92t.1-1.41m6.246-1.86q-.11-.46-.4-.69t-.81-.23q-.79 0-1.18.61-.39.6-.41 2a1.7 1.7 0 0 1 .76-.68q.5-.24 1.08-.24.66 0 1.16.29.51.28.79.82.29.54.29 1.29 0 .7-.28 1.25-.27.55-.81.87-.54.31-1.3.31-1.03 0-1.62-.45-.58-.46-.82-1.29-.23-.83-.23-2.07 0-3.66 2.58-3.66 1 0 1.57.54.58.54.68 1.33zm-1.21 1.73a1.54 1.54 0 0 0-1.04.37q-.42.36-.42 1.05t.39 1.1q.4.4 1.11.4.63 0 .99-.39.37-.39.37-1.04 0-.68-.36-1.08-.35-.41-1.04-.41m24.217.13q0-1.73.58-2.7.59-.98 2.02-.98t2.01.98q.59.97.59 2.7 0 1.75-.59 2.74-.58.98-2.01.98t-2.02-.98q-.58-.99-.58-2.74m4.08 0q0-.81-.11-1.37-.1-.56-.42-.91-.32-.36-.95-.36t-.95.36q-.32.35-.43.91-.1.56-.1 1.37 0 .84.1 1.41t.42.92q.33.35.96.35t.95-.35q.33-.35.43-.92c.1-.57.1-.85.1-1.41m6.946-2.67-2.78 6.41h-1.15l2.81-6.29h-3.7v-.97h4.82zM19.6 92.26q0-1.73.58-2.7.59-.98 2.02-.98t2.01.98q.59.97.59 2.7 0 1.75-.59 2.74-.58.98-2.01.98T20.18 95q-.58-.99-.58-2.74m4.08 0q0-.81-.11-1.37-.1-.56-.42-.91-.32-.36-.95-.36t-.95.36q-.32.35-.43.91-.1.56-.1 1.37 0 .84.1 1.41t.42.92q.33.35.96.35t.95-.35q.33-.35.43-.92c.1-.57.1-.85.1-1.41m3.556-.07q-1.04-.52-1.04-1.64 0-.54.27-.99t.81-.71q.54-.27 1.32-.27.77 0 1.31.27.55.26.82.71t.27.99q0 .56-.29.99a1.86 1.86 0 0 1-.75.65q.57.21.9.69.33.47.33 1.11 0 .65-.33 1.15t-.92.77-1.34.27-1.34-.27a2.15 2.15 0 0 1-.91-.77 2.04 2.04 0 0 1-.33-1.15q0-.65.33-1.12t.89-.68m2.67-1.5q0-.56-.35-.86t-.96-.3q-.6 0-.95.3t-.35.87q0 .5.36.82.37.31.94.31t.94-.32.37-.82m-1.31 2q-.66 0-1.08.33-.41.32-.41.93 0 .57.4.93.4.35 1.09.35.68 0 1.07-.36.4-.36.4-.92 0-.6-.41-.93-.4-.33-1.06-.33m24.337-.43q0-1.73.58-2.7.59-.98 2.02-.98t2.01.98q.59.97.59 2.7 0 1.75-.59 2.74-.579.98-2.01.98t-2.02-.98q-.58-.99-.58-2.74m4.08 0q0-.81-.11-1.37-.099-.56-.42-.91-.32-.36-.95-.36t-.95.36q-.32.35-.43.91-.1.56-.1 1.37 0 .84.1 1.41t.42.92q.33.35.96.35t.95-.35q.33-.35.43-.92t.1-1.41m3.747 1.76q.1.5.43.76t.89.26q.71 0 1.04-.56t.33-1.91a1.57 1.57 0 0 1-.68.53q-.43.18-.94.18-.65 0-1.18-.26a2.04 2.04 0 0 1-.84-.79q-.3-.53-.3-1.28 0-1.1.64-1.75.65-.66 1.78-.66 1.36 0 1.93.91.58.9.58 2.77 0 1.29-.22 2.11-.21.82-.74 1.24-.531.42-1.47.42-1.071 0-1.65-.56-.58-.56-.65-1.41zm1.27-1.7q.6 0 .94-.37.35-.38.35-1 0-.69-.37-1.07-.36-.39-.99-.39t-1 .4q-.36.39-.36 1.03 0 .61.35 1.01.36.39 1.08.39m24.087-2.57v-1.04h2.08V96h-1.15v-6.25zm3.646 2.51q0-1.73.58-2.7.59-.98 2.02-.98t2.01.98q.59.97.59 2.7 0 1.75-.59 2.74-.58.98-2.01.98t-2.02-.98q-.58-.99-.58-2.74m4.08 0q0-.81-.11-1.37-.1-.56-.42-.91-.32-.36-.95-.36t-.95.36q-.32.35-.43.91-.1.56-.1 1.37 0 .84.1 1.41.099.57.42.92.33.35.96.35t.95-.35q.33-.35.43-.92c.1-.57.1-.85.1-1.41m25.607-2.51v-1.04h2.08V96h-1.15v-6.25zm3.496 0v-1.04h2.08V96h-1.15v-6.25zm29.837 0v-1.04h2.08V96h-1.15v-6.25zm4.276 4.7a39 39 0 0 0 1.51-1.36 6 6 0 0 0 .93-1.12q.37-.58.37-1.16 0-.6-.29-.94-.28-.34-.89-.34-.59 0-.92.38-.32.37-.34 1h-1.1q.03-1.14.68-1.74.66-.61 1.67-.61 1.09 0 1.7.6.62.6.62 1.6 0 .72-.37 1.39-.36.66-.87 1.19-.5.52-1.28 1.21l-.45.4h3.17v.95h-4.86v-.83z"/><rect width="22" height="25" x="180.667" y="80" fill="#090F23" rx="11"/><path fill="#fff" d="M186.117 89.75v-1.04h2.08V96h-1.15v-6.25zm3.626.76q.06-.93.71-1.45.66-.52 1.68-.52.7 0 1.21.25t.77.68.26.97q0 .62-.33 1.06t-.79.59v.04q.59.18.92.66.33.47.33 1.21 0 .59-.27 1.05t-.8.73q-.53.26-1.27.26-1.08 0-1.78-.55-.69-.56-.74-1.6h1.1q.04.53.41.87.37.33 1 .33.61 0 .94-.33.33-.34.33-.87 0-.7-.45-.99-.44-.3-1.36-.3h-.26v-.94h.27q.81-.01 1.23-.27.43-.26.43-.82 0-.48-.31-.76-.31-.29-.88-.29-.56 0-.87.29a1.13 1.13 0 0 0-.37.7z"/><path fill="#333" d="M219.45 89.75v-1.04h2.08V96h-1.15v-6.25zm3.506 4.73v-.86l3.36-4.82h1.38v4.69h.93v.99h-.93V96h-1.12v-1.52zm3.67-4.52-2.36 3.53h2.36zM19.45 122.75v-1.04h2.08V129h-1.15v-6.25zm8.346-.06h-3.35v1.99q.21-.28.62-.47.42-.19.89-.19.84 0 1.36.36.53.36.75.91.23.55.23 1.16 0 .74-.29 1.32-.28.57-.85.9-.56.33-1.38.33-1.09 0-1.75-.54t-.79-1.43h1.11q.11.47.49.75.38.27.95.27.71 0 1.06-.43.36-.43.36-1.14 0-.72-.36-1.1-.36-.39-1.06-.39-.49 0-.83.25-.33.24-.48.66h-1.08v-4.21h4.4zm24.987.06v-1.04h2.08V129h-1.15v-6.25zm7.566.65q-.11-.46-.4-.69t-.81-.23q-.79 0-1.18.61-.39.6-.41 2 .26-.44.76-.68.501-.24 1.08-.24.66 0 1.16.29.51.28.79.82.29.54.29 1.29 0 .7-.28 1.25-.27.55-.81.87-.54.31-1.3.31-1.029 0-1.62-.45-.58-.46-.82-1.29-.23-.83-.23-2.07 0-3.66 2.58-3.66 1 0 1.57.54.58.54.68 1.33zm-1.21 1.73a1.54 1.54 0 0 0-1.04.37q-.42.36-.42 1.05t.39 1.1q.4.4 1.11.4.63 0 .99-.39.37-.39.37-1.04 0-.68-.36-1.08-.35-.41-1.04-.41m26.978-2.38v-1.04h2.08V129h-1.15v-6.25zm8.266-.16-2.78 6.41h-1.15l2.81-6.29h-3.7v-.97h4.82z"/><rect width="22" height="25" x="114" y="113" fill="#090F23" rx="11"/><path fill="#fff" d="M119.45 122.75v-1.04h2.08V129h-1.15v-6.25zm4.876 2.44q-1.04-.52-1.04-1.64 0-.54.27-.99t.81-.71q.54-.27 1.32-.27.77 0 1.31.27.55.26.82.71t.27.99q0 .56-.29.99-.28.42-.75.65.57.21.9.69.33.47.33 1.11 0 .65-.33 1.15t-.92.77-1.34.27-1.34-.27a2.15 2.15 0 0 1-.91-.77 2.04 2.04 0 0 1-.33-1.15q0-.65.33-1.12t.89-.68m2.67-1.5q0-.56-.35-.86t-.96-.3q-.6 0-.95.3t-.35.87q0 .5.36.82.37.31.94.31t.94-.32.37-.82m-1.31 2q-.66 0-1.08.33-.41.32-.41.93 0 .57.4.93.4.35 1.09.35.68 0 1.07-.36.4-.36.4-.92 0-.6-.41-.93-.4-.33-1.06-.33"/><path fill="#333" d="M152.783 122.75v-1.04h2.08V129h-1.15v-6.25zm5.066 4.27q.1.5.43.76t.89.26q.71 0 1.04-.56t.33-1.91q-.24.34-.68.53-.43.18-.94.18a2.65 2.65 0 0 1-1.18-.26 2.04 2.04 0 0 1-.84-.79q-.3-.53-.3-1.28 0-1.1.64-1.75.65-.66 1.78-.66 1.36 0 1.93.91.58.9.58 2.77 0 1.29-.22 2.11-.21.82-.74 1.24t-1.47.42q-1.07 0-1.65-.56t-.65-1.41zm1.27-1.7q.6 0 .94-.37.35-.38.35-1 0-.69-.37-1.07-.36-.39-.99-.39t-1 .4q-.36.39-.36 1.03 0 .61.35 1.01.36.39 1.08.39m27.778 2.13a40 40 0 0 0 1.51-1.36q.56-.54.93-1.12t.37-1.16q0-.6-.29-.94-.28-.34-.89-.34-.59 0-.92.38-.32.37-.34 1h-1.1q.03-1.14.68-1.74.66-.61 1.67-.61 1.09 0 1.7.6.62.6.62 1.6 0 .72-.37 1.39-.36.66-.87 1.19-.5.52-1.28 1.21l-.45.4h3.17v.95h-4.86v-.83zm5.141-2.19q0-1.73.58-2.7.59-.98 2.02-.98t2.01.98q.59.97.59 2.7 0 1.75-.59 2.74-.579.98-2.01.98t-2.02-.98q-.58-.99-.58-2.74m4.08 0q0-.81-.11-1.37-.099-.56-.42-.91-.32-.36-.95-.36t-.95.36q-.32.35-.43.91-.1.56-.1 1.37 0 .84.1 1.41t.42.92q.33.35.96.35t.95-.35q.33-.35.43-.92t.1-1.41m24.112 2.19a40 40 0 0 0 1.51-1.36q.56-.54.93-1.12t.37-1.16q0-.6-.29-.94-.28-.34-.89-.34-.59 0-.92.38-.32.37-.34 1h-1.1q.03-1.14.68-1.74.66-.61 1.67-.61 1.09 0 1.7.6.62.6.62 1.6 0 .72-.37 1.39-.36.66-.87 1.19-.5.52-1.28 1.21l-.45.4h3.17v.95h-4.86v-.83zm4.991-4.7v-1.04h2.08V129h-1.15v-6.25zM20.23 160.45a40 40 0 0 0 1.51-1.36q.56-.54.93-1.12t.37-1.16q0-.6-.29-.94-.28-.34-.89-.34-.59 0-.92.38-.32.37-.34 1h-1.1q.03-1.14.68-1.74.66-.61 1.67-.61 1.09 0 1.7.6.62.6.62 1.6 0 .72-.37 1.39-.36.66-.87 1.19-.5.52-1.28 1.21l-.45.4h3.17v.95h-4.86v-.83zm5.771 0a40 40 0 0 0 1.51-1.36 6 6 0 0 0 .93-1.12q.37-.58.37-1.16 0-.6-.29-.94-.28-.34-.89-.34-.59 0-.92.38-.32.37-.34 1h-1.1q.03-1.14.68-1.74.66-.61 1.67-.61 1.09 0 1.7.6.62.6.62 1.6 0 .72-.37 1.39-.36.66-.87 1.19-.5.52-1.28 1.21l-.45.4h3.17v.95h-4.86v-.83zm27.562 0a40 40 0 0 0 1.51-1.36 6 6 0 0 0 .93-1.12q.37-.58.37-1.16 0-.6-.29-.94-.28-.34-.89-.34-.59 0-.92.38-.32.37-.34 1h-1.1q.03-1.14.68-1.74.66-.61 1.67-.61 1.09 0 1.7.6.62.6.62 1.6 0 .72-.37 1.39-.36.66-.87 1.19-.5.52-1.28 1.21l-.45.4h3.17v.95h-4.86v-.83zm5.122-3.94q.06-.93.71-1.45.66-.52 1.68-.52.7 0 1.21.25t.77.68.26.97q0 .62-.33 1.06a1.6 1.6 0 0 1-.79.59v.04q.59.18.92.66.33.47.33 1.21 0 .59-.27 1.05t-.8.73q-.53.26-1.27.26-1.08 0-1.78-.55-.69-.56-.74-1.6h1.1q.04.53.41.87.37.33 1 .33.61 0 .94-.33.33-.34.33-.87 0-.7-.45-.99-.44-.3-1.36-.3h-.26v-.94h.27q.81-.01 1.23-.27.43-.26.43-.82 0-.48-.31-.76-.31-.29-.88-.29-.561 0-.87.29a1.13 1.13 0 0 0-.37.7zm28.212 3.94a40 40 0 0 0 1.51-1.36 6.2 6.2 0 0 0 .93-1.12q.37-.58.37-1.16 0-.6-.29-.94-.28-.34-.89-.34-.59 0-.92.38-.32.37-.34 1h-1.1q.03-1.14.68-1.74.66-.61 1.67-.61 1.09 0 1.7.6.62.6.62 1.6 0 .72-.37 1.39-.36.66-.87 1.19-.5.52-1.28 1.21l-.45.4h3.17v.95h-4.86v-.83zm5.001.03v-.86l3.36-4.82h1.38v4.69h.93v.99h-.93V162h-1.12v-1.52zm3.67-4.52-2.36 3.53h2.36zm24.662 4.49a40 40 0 0 0 1.51-1.36q.56-.54.93-1.12t.37-1.16q0-.6-.29-.94-.28-.34-.89-.34-.59 0-.92.38-.32.37-.34 1h-1.1q.03-1.14.68-1.74.66-.61 1.67-.61 1.09 0 1.7.6.62.6.62 1.6 0 .72-.37 1.39-.36.66-.87 1.19-.5.52-1.28 1.21l-.45.4h3.17v.95h-4.86v-.83zm9.841-4.76h-3.35v1.99q.21-.28.62-.47.42-.19.89-.19.84 0 1.36.36.531.36.75.91.23.55.23 1.16 0 .74-.29 1.32-.28.57-.85.9-.56.33-1.38.33-1.09 0-1.75-.54t-.79-1.43h1.11q.11.47.49.75.38.27.95.27.71 0 1.06-.43.36-.43.36-1.14 0-.72-.36-1.1-.36-.39-1.06-.39-.49 0-.83.25-.33.24-.48.66h-1.08v-4.21h4.4zm23.492 4.76a39 39 0 0 0 1.51-1.36 6 6 0 0 0 .93-1.12q.37-.58.37-1.16 0-.6-.29-.94-.28-.34-.89-.34-.59 0-.92.38-.32.37-.34 1h-1.1q.03-1.14.68-1.74.66-.61 1.67-.61 1.09 0 1.7.6.62.6.62 1.6 0 .72-.37 1.39-.36.66-.87 1.19-.5.52-1.28 1.21l-.45.4h3.17v.95h-4.86v-.83zm9.062-4.05q-.11-.46-.4-.69t-.81-.23q-.79 0-1.18.61-.39.6-.41 2 .26-.44.76-.68t1.08-.24q.66 0 1.16.29.51.28.79.82.29.54.29 1.29 0 .7-.28 1.25-.27.55-.81.87-.54.31-1.3.31-1.03 0-1.62-.45-.58-.46-.82-1.29-.23-.83-.23-2.07 0-3.66 2.58-3.66 1 0 1.57.54.58.54.68 1.33zm-1.21 1.73q-.61 0-1.04.37-.42.36-.42 1.05t.39 1.1q.399.4 1.11.4.63 0 .99-.39.37-.39.37-1.04 0-.68-.36-1.08-.35-.41-1.04-.41m25.482 2.32a40 40 0 0 0 1.51-1.36q.56-.54.93-1.12t.37-1.16q0-.6-.29-.94-.28-.34-.89-.34-.59 0-.92.38-.32.37-.34 1h-1.1q.03-1.14.68-1.74.66-.61 1.67-.61 1.09 0 1.7.6.62.6.62 1.6 0 .72-.37 1.39-.36.66-.87 1.19-.5.52-1.28 1.21l-.45.4h3.17v.95h-4.86v-.83zm9.761-4.86-2.78 6.41h-1.15l2.81-6.29h-3.7v-.97h4.82zm23.572 4.86a40 40 0 0 0 1.51-1.36q.56-.54.93-1.12t.37-1.16q0-.6-.29-.94-.28-.34-.89-.34-.59 0-.92.38-.32.37-.34 1h-1.1q.03-1.14.68-1.74.66-.61 1.67-.61 1.09 0 1.7.6.62.6.62 1.6 0 .72-.37 1.39-.36.66-.87 1.19-.5.52-1.28 1.21l-.45.4h3.17v.95h-4.86v-.83zm6.371-2.26q-1.04-.52-1.04-1.64 0-.54.27-.99t.81-.71q.54-.27 1.32-.27.77 0 1.31.27.55.26.82.71t.27.99q0 .56-.29.99a1.86 1.86 0 0 1-.75.65q.57.21.9.69.33.47.33 1.11 0 .65-.33 1.15t-.92.77-1.34.27-1.34-.27a2.16 2.16 0 0 1-.91-.77 2.04 2.04 0 0 1-.33-1.15q0-.65.33-1.12t.89-.68m2.67-1.5q0-.56-.35-.86t-.96-.3q-.6 0-.95.3t-.35.87q0 .5.36.82.37.31.94.31t.94-.32.37-.82m-1.31 2q-.66 0-1.08.33-.41.32-.41.93 0 .57.4.93.4.35 1.09.35.68 0 1.07-.36.4-.36.4-.92 0-.6-.41-.93-.4-.33-1.06-.33M20.23 193.45a40 40 0 0 0 1.51-1.36q.56-.54.93-1.12t.37-1.16q0-.6-.29-.94-.28-.34-.89-.34-.59 0-.92.38-.32.37-.34 1h-1.1q.03-1.14.68-1.74.66-.61 1.67-.61 1.09 0 1.7.6.62.6.62 1.6 0 .72-.37 1.39-.36.66-.87 1.19-.5.52-1.28 1.21l-.45.4h3.17v.95h-4.86v-.83zm6.561-.43q.1.5.43.76t.89.26q.71 0 1.04-.56t.33-1.91q-.24.34-.68.53-.43.18-.94.18a2.65 2.65 0 0 1-1.18-.26 2.04 2.04 0 0 1-.84-.79q-.3-.53-.3-1.28 0-1.1.64-1.75.65-.66 1.78-.66 1.36 0 1.93.91.58.9.58 2.77 0 1.29-.22 2.11-.21.82-.74 1.24t-1.47.42q-1.07 0-1.65-.56t-.65-1.41zm1.27-1.7q.6 0 .94-.37.35-.38.35-1 0-.69-.37-1.07-.36-.39-.99-.39t-1 .4q-.36.39-.36 1.03 0 .61.35 1.01.36.39 1.08.39"/><rect width="30" height="33" x="43.333" y="175" fill="#fff" rx="15"/><rect width="22" height="25" x="47.333" y="179" fill="#090F23" rx="11"/><path fill="#fff" d="M52.913 189.51q.06-.93.71-1.45.66-.52 1.68-.52.7 0 1.21.25t.77.68.26.97q0 .62-.33 1.06t-.79.59v.04q.59.18.92.66.33.47.33 1.21 0 .59-.27 1.05a1.9 1.9 0 0 1-.8.73q-.53.26-1.27.26-1.08 0-1.78-.55-.69-.56-.74-1.6h1.1q.04.53.41.87.37.33 1 .33.61 0 .94-.33.33-.34.33-.87 0-.7-.45-.99-.44-.3-1.36-.3h-.26v-.94h.27q.81-.01 1.23-.27.43-.26.43-.82 0-.48-.31-.76-.31-.29-.88-.29-.56 0-.87.29a1.13 1.13 0 0 0-.37.7zm5.958 1.75q0-1.73.58-2.7.59-.98 2.02-.98t2.01.98q.59.97.59 2.7 0 1.75-.59 2.74-.58.98-2.01.98t-2.02-.98q-.58-.99-.58-2.74m4.08 0q0-.81-.11-1.37-.1-.56-.42-.91-.32-.36-.95-.36t-.95.36q-.32.35-.43.91-.1.56-.1 1.37 0 .84.1 1.41.099.57.42.92.33.35.96.35t.95-.35q.33-.35.43-.92t.1-1.41"/><path fill="#333" d="M86.247 189.51q.06-.93.71-1.45.66-.52 1.68-.52.7 0 1.21.25t.77.68.26.97q0 .62-.33 1.06a1.6 1.6 0 0 1-.79.59v.04q.59.18.92.66.33.47.33 1.21 0 .59-.27 1.05t-.8.73q-.53.26-1.27.26-1.08 0-1.78-.55-.69-.56-.74-1.6h1.1q.04.53.41.87.37.33 1 .33.61 0 .94-.33.33-.34.33-.87 0-.7-.45-.99-.44-.3-1.36-.3h-.26v-.94h.27q.81-.01 1.23-.27.43-.26.43-.82 0-.48-.31-.76-.31-.29-.88-.29-.561 0-.87.29a1.13 1.13 0 0 0-.37.7zm5.807-.76v-1.04h2.08V195h-1.15v-6.25z"/><path fill="#333" d="M119.6 191.26q0-1.73.58-2.7.59-.98 2.02-.98t2.01.98q.59.97.59 2.7 0 1.75-.59 2.74-.58.98-2.01.98t-2.02-.98q-.58-.99-.58-2.74m4.08 0q0-.81-.11-1.37-.1-.56-.42-.91-.32-.36-.95-.36t-.95.36q-.32.35-.43.91-.1.56-.1 1.37 0 .84.1 1.41t.42.92q.33.35.96.35t.95-.35q.33-.35.43-.92c.1-.57.1-.85.1-1.41m2.176-2.51v-1.04h2.08V195h-1.15v-6.25zm27.077 2.51q0-1.73.58-2.7.59-.98 2.02-.98t2.01.98q.59.97.59 2.7 0 1.75-.59 2.74-.579.98-2.01.98t-2.02-.98q-.58-.99-.58-2.74m4.08 0q0-.81-.11-1.37-.099-.56-.42-.91-.32-.36-.95-.36t-.95.36q-.32.35-.43.91-.1.56-.1 1.37 0 .84.1 1.41t.42.92q.33.35.96.35t.95-.35q.33-.35.43-.92t.1-1.41m2.957 2.19a40 40 0 0 0 1.51-1.36q.56-.54.93-1.12t.37-1.16q0-.6-.29-.94-.28-.34-.89-.34-.59 0-.92.38-.32.37-.34 1h-1.1q.03-1.14.68-1.74.66-.61 1.67-.61 1.09 0 1.7.6.62.6.62 1.6 0 .72-.37 1.39-.36.66-.87 1.19-.5.52-1.28 1.21l-.45.4h3.17v.95h-4.86v-.83zm26.297-2.19q0-1.73.58-2.7.59-.98 2.02-.98t2.01.98q.59.97.59 2.7 0 1.75-.59 2.74-.58.98-2.01.98t-2.02-.98q-.58-.99-.58-2.74m4.08 0q0-.81-.11-1.37-.1-.56-.42-.91-.32-.36-.95-.36t-.95.36q-.32.35-.43.91-.1.56-.1 1.37 0 .84.1 1.41.099.57.42.92.33.35.96.35t.95-.35q.33-.35.43-.92t.1-1.41m2.306-1.75q.06-.93.71-1.45.66-.52 1.68-.52.7 0 1.21.25t.77.68.26.97q0 .62-.33 1.06t-.79.59v.04q.59.18.92.66.33.47.33 1.21 0 .59-.27 1.05t-.8.73q-.53.26-1.27.26-1.08 0-1.78-.55-.69-.56-.74-1.6h1.1q.04.53.41.87.37.33 1 .33.61 0 .94-.33.33-.34.33-.87 0-.7-.45-.99-.44-.3-1.36-.3h-.26v-.94h.27q.81-.01 1.23-.27.43-.26.43-.82 0-.48-.31-.76-.31-.29-.88-.29-.56 0-.87.29a1.13 1.13 0 0 0-.37.7zm26.947 1.75q0-1.73.58-2.7.59-.98 2.02-.98t2.01.98q.59.97.59 2.7 0 1.75-.59 2.74-.58.98-2.01.98t-2.02-.98q-.58-.99-.58-2.74m4.08 0q0-.81-.11-1.37-.1-.56-.42-.91-.32-.36-.95-.36t-.95.36q-.32.35-.43.91-.1.56-.1 1.37 0 .84.1 1.41t.42.92q.33.35.96.35t.95-.35q.33-.35.43-.92c.1-.57.1-.85.1-1.41m2.186 2.22v-.86l3.36-4.82h1.38v4.69h.93v.99h-.93V195h-1.12v-1.52zm3.67-4.52-2.36 3.53h2.36z" opacity=".3"/></svg>